<?xml version="1.0" encoding="iso-8859-1"?>
<!-- Generator: Adobe Illustrator 19.0.0, SVG Export Plug-In . SVG Version: 6.00 Build 0)  -->
<svg version="1.1" id="Capa_1" xmlns="http://www.w3.org/2000/svg" xmlns:xlink="http://www.w3.org/1999/xlink" x="0px" y="0px"
	 viewBox="0 0 512 512" style="enable-background:new 0 0 512 512;" xml:space="preserve">
<g>
	<g>
		<path style="fill:#FFFFFF;" d="M407.408,202.879c-4.105-9.247-13.291-15.19-23.408-15.146h-17.067v-102.4h25.6c4.713,0,8.533-3.82,8.533-8.533
			s-3.82-8.533-8.533-8.533h-25.6V49.628c11.753-4.132,18.808-16.141,16.697-28.419S370.858-0.031,358.4,0H153.6
			c-12.458-0.031-23.119,8.931-25.23,21.209c-2.111,12.277,4.945,24.286,16.697,28.418v138.106H128
			c-10.117-0.044-19.303,5.899-23.408,15.146c-4.105,9.247-2.353,20.046,4.466,27.521c-6.819,7.474-8.571,18.274-4.466,27.521
			c4.105,9.247,13.291,15.19,23.408,15.146h0.54c3.407,32.804,26.2,61.205,59.194,77.936V486.4
			c0.015,14.132,11.468,25.585,25.6,25.6h85.333c14.132-0.015,25.585-11.468,25.6-25.6V351.003
			c32.994-16.731,55.786-45.132,59.194-77.936H384c10.117,0.044,19.303-5.899,23.408-15.146c4.105-9.247,2.353-20.046-4.466-27.521
			C409.76,222.926,411.513,212.126,407.408,202.879z M153.6,17.067h204.8c4.713,0,8.533,3.82,8.533,8.533s-3.82,8.533-8.533,8.533
			H153.6c-4.713,0-8.533-3.821-8.533-8.533S148.887,17.067,153.6,17.067z M349.867,51.2v136.533H162.133V51.2H349.867z M307.2,486.4
			c-0.005,4.711-3.822,8.529-8.533,8.533h-85.333c-4.711-0.005-8.529-3.822-8.533-8.533V358.325
			c33.168,11.478,69.232,11.478,102.4,0V486.4z M312.415,337.907l-0.009,0.004c-35.914,15.94-76.896,15.94-112.811,0l-0.011-0.005
			c-29.577-13.509-50.387-37.231-53.967-64.841h220.767C362.803,300.676,341.993,324.399,312.415,337.907z M384,256H128
			c-4.713,0-8.533-3.821-8.533-8.533s3.82-8.533,8.533-8.533h256c4.713,0,8.533,3.82,8.533,8.533S388.713,256,384,256z M384,221.867
			H128c-4.713,0-8.533-3.821-8.533-8.533c0-4.713,3.82-8.533,8.533-8.533h256c4.713,0,8.533,3.821,8.533,8.533
			C392.533,218.046,388.713,221.867,384,221.867z"/>
	</g>
</g>
<g>
</g>
<g>
</g>
<g>
</g>
<g>
</g>
<g>
</g>
<g>
</g>
<g>
</g>
<g>
</g>
<g>
</g>
<g>
</g>
<g>
</g>
<g>
</g>
<g>
</g>
<g>
</g>
<g>
</g>
</svg>
