<?xml version="1.0" encoding="utf-8"?>
<!-- Generator: Adobe Illustrator 16.0.3, SVG Export Plug-In . SVG Version: 6.00 Build 0)  -->
<!DOCTYPE svg PUBLIC "-//W3C//DTD SVG 1.1//EN" "http://www.w3.org/Graphics/SVG/1.1/DTD/svg11.dtd">
<svg version="1.1" xmlns="http://www.w3.org/2000/svg" xmlns:xlink="http://www.w3.org/1999/xlink" x="0px" y="0px" width="245px"
	 height="238px" viewBox="0 0 245 238" enable-background="new 0 0 245 238" xml:space="preserve">
<g id="Capa_1">
</g>
<g id="Capa_2">
	<g>
		<path style="fill:#FFFFFF;" d="M217,63H81c-8.271,0-15,6.729-15,15v136c0,8.271,6.729,15,15,15h136c8.271,0,15-6.729,15-15V78
			C232,69.729,225.271,63,217,63z M226,78v136c0,1.367-0.315,2.659-0.863,3.82l-70.974-70.882l71.45-71.542
			C225.862,76.221,226,77.095,226,78z M217,69c1.849,0,3.569,0.562,5,1.522l-72.083,72.175L77.051,69.925
			C78.245,69.339,79.583,69,81,69H217z M73.602,219.112C72.594,217.659,72,215.898,72,214V78c0-1.355,0.31-2.638,0.849-3.792
			l72.829,72.735L73.602,219.112z M81,223c-0.851,0-1.672-0.127-2.453-0.349l71.376-71.468l70.997,70.906
			c-1.187,0.578-2.514,0.911-3.92,0.911H81z"/>
		<g>
			<path d="M69,50c-1.657,0-3-1.343-3-3V10c0-1.657,1.343-3,3-3s3,1.343,3,3v37C72,48.657,70.657,50,69,50z"/>
		</g>
		<g>
			<path d="M230.25,50c-1.657,0-3-1.343-3-3V10c0-1.657,1.343-3,3-3s3,1.343,3,3v37C233.25,48.657,231.907,50,230.25,50z"/>
		</g>
		<g>
			<path d="M50.458,69.312h-37c-1.657,0-3-1.343-3-3s1.343-3,3-3h37c1.657,0,3,1.343,3,3S52.115,69.312,50.458,69.312z"/>
		</g>
		<g>
			<path d="M50.458,230.562h-37c-1.657,0-3-1.343-3-3s1.343-3,3-3h37c1.657,0,3,1.343,3,3S52.115,230.562,50.458,230.562z"/>
		</g>
		<path d="M217.572,29.904c0.033-0.061,0.07-0.118,0.099-0.181c0.067-0.15,0.116-0.308,0.159-0.47
			c0.011-0.043,0.03-0.083,0.039-0.127c0.043-0.202,0.068-0.411,0.068-0.626c0-0.004-0.001-0.008-0.001-0.012
			s0.001-0.007,0.001-0.011c0-0.042-0.013-0.082-0.015-0.123c-0.008-0.171-0.024-0.341-0.061-0.504
			c-0.015-0.066-0.041-0.127-0.06-0.192c-0.041-0.138-0.083-0.274-0.143-0.403c-0.032-0.07-0.072-0.134-0.11-0.202
			c-0.064-0.115-0.131-0.227-0.209-0.333c-0.049-0.066-0.102-0.127-0.156-0.188c-0.085-0.098-0.176-0.189-0.274-0.275
			c-0.034-0.03-0.061-0.068-0.097-0.097L193.688,7.607c-1.292-1.037-3.181-0.83-4.217,0.462c-1.037,1.292-0.83,3.181,0.462,4.217
			L206.403,25.5H93.456l16.707-13.826c1.276-1.056,1.455-2.947,0.398-4.224s-2.947-1.455-4.224-0.398L83.212,26.189
			c-0.031,0.026-0.054,0.06-0.083,0.086c-0.098,0.088-0.188,0.183-0.273,0.283c-0.052,0.061-0.104,0.119-0.15,0.183
			c-0.082,0.112-0.15,0.231-0.216,0.354c-0.032,0.061-0.07,0.118-0.099,0.181c-0.067,0.15-0.116,0.308-0.158,0.469
			c-0.011,0.043-0.03,0.083-0.04,0.127c-0.043,0.202-0.068,0.411-0.068,0.626c0,0.004,0.001,0.008,0.001,0.012
			s-0.001,0.007-0.001,0.011c0,0.042,0.013,0.082,0.015,0.123c0.008,0.171,0.024,0.341,0.061,0.504
			c0.015,0.066,0.041,0.127,0.06,0.192c0.041,0.138,0.083,0.274,0.143,0.403c0.032,0.07,0.072,0.134,0.109,0.202
			c0.064,0.115,0.131,0.227,0.209,0.333c0.048,0.066,0.102,0.127,0.156,0.188c0.085,0.098,0.176,0.189,0.273,0.275
			c0.035,0.03,0.061,0.068,0.097,0.097l23.125,18.553c0.554,0.444,1.217,0.66,1.875,0.66c0.878,0,1.75-0.384,2.342-1.123
			c1.037-1.292,0.83-3.181-0.462-4.217L93.658,31.5h112.947l-16.707,13.826c-1.276,1.056-1.455,2.947-0.398,4.224
			c0.593,0.717,1.45,1.087,2.313,1.087c0.674,0,1.352-0.226,1.911-0.689l23.125-19.137c0.031-0.026,0.054-0.06,0.083-0.086
			c0.098-0.088,0.188-0.183,0.274-0.284c0.051-0.06,0.104-0.118,0.15-0.182C217.438,30.147,217.506,30.027,217.572,29.904z"/>
		<path d="M52.389,185.423c-1.292-1.037-3.181-0.83-4.217,0.462l-13.213,16.469l0-112.947l13.826,16.707
			c1.057,1.277,2.947,1.456,4.224,0.398c1.276-1.056,1.455-2.947,0.398-4.224L34.269,79.164c-0.026-0.032-0.06-0.054-0.087-0.084
			c-0.086-0.096-0.179-0.184-0.277-0.269c-0.062-0.053-0.121-0.106-0.186-0.153c-0.108-0.079-0.224-0.146-0.343-0.21
			c-0.063-0.034-0.124-0.073-0.19-0.103c-0.138-0.062-0.283-0.107-0.431-0.148c-0.055-0.015-0.106-0.038-0.162-0.05
			c-0.205-0.044-0.417-0.07-0.635-0.07c-0.007,0-0.015,0-0.023,0c-0.042,0-0.082,0.013-0.123,0.015
			c-0.171,0.008-0.341,0.024-0.504,0.061c-0.066,0.015-0.127,0.041-0.192,0.06c-0.138,0.041-0.274,0.083-0.403,0.143
			c-0.07,0.032-0.134,0.072-0.202,0.11c-0.115,0.064-0.227,0.131-0.333,0.209c-0.066,0.049-0.127,0.102-0.188,0.156
			c-0.098,0.085-0.189,0.176-0.275,0.274c-0.03,0.034-0.068,0.061-0.097,0.097l-18.553,23.125c-1.037,1.292-0.83,3.181,0.462,4.217
			c0.554,0.444,1.217,0.66,1.875,0.66c0.878,0,1.75-0.384,2.342-1.123L28.958,89.61l0,112.947L15.133,185.85
			c-1.057-1.276-2.947-1.455-4.224-0.398s-1.455,2.947-0.398,4.224L29.647,212.8c0.026,0.032,0.06,0.054,0.087,0.084
			c0.086,0.096,0.179,0.184,0.277,0.269c0.061,0.053,0.121,0.106,0.185,0.153c0.108,0.079,0.225,0.146,0.343,0.21
			c0.064,0.034,0.124,0.073,0.19,0.103c0.138,0.062,0.283,0.107,0.431,0.147c0.055,0.016,0.106,0.039,0.162,0.051
			c0.205,0.044,0.417,0.07,0.635,0.07c0.007,0,0.015,0,0.023,0c0.042,0,0.082-0.013,0.123-0.015
			c0.172-0.008,0.341-0.024,0.504-0.061c0.066-0.015,0.127-0.041,0.192-0.06c0.138-0.041,0.273-0.083,0.402-0.143
			c0.07-0.032,0.134-0.072,0.202-0.109c0.115-0.064,0.227-0.131,0.333-0.209c0.066-0.048,0.127-0.102,0.188-0.156
			c0.098-0.085,0.189-0.176,0.275-0.273c0.03-0.035,0.068-0.061,0.097-0.097l18.553-23.125
			C53.888,188.348,53.681,186.459,52.389,185.423z"/>
	</g>
</g>
</svg>
